<svg xmlns="http://www.w3.org/2000/svg" viewBox="0 0 512 512">
  <defs>
    <linearGradient id="g" x1="0" y1="0" x2="1" y2="1">
      <stop offset="0" stop-color="#38bdf8"/>
      <stop offset="1" stop-color="#075985"/>
    </linearGradient>
  </defs>
  <rect width="512" height="512" rx="104" fill="url(#g)"/>
  <g stroke="#fff" stroke-width="26" stroke-linecap="round" fill="none">
    <g>
      <line x1="256" y1="256" x2="256" y2="96"/>
      <line x1="256" y1="150" x2="222" y2="116"/>
      <line x1="256" y1="150" x2="290" y2="116"/>
    </g>
    <g transform="rotate(60 256 256)">
      <line x1="256" y1="256" x2="256" y2="96"/>
      <line x1="256" y1="150" x2="222" y2="116"/>
      <line x1="256" y1="150" x2="290" y2="116"/>
    </g>
    <g transform="rotate(120 256 256)">
      <line x1="256" y1="256" x2="256" y2="96"/>
      <line x1="256" y1="150" x2="222" y2="116"/>
      <line x1="256" y1="150" x2="290" y2="116"/>
    </g>
    <g transform="rotate(180 256 256)">
      <line x1="256" y1="256" x2="256" y2="96"/>
      <line x1="256" y1="150" x2="222" y2="116"/>
      <line x1="256" y1="150" x2="290" y2="116"/>
    </g>
    <g transform="rotate(240 256 256)">
      <line x1="256" y1="256" x2="256" y2="96"/>
      <line x1="256" y1="150" x2="222" y2="116"/>
      <line x1="256" y1="150" x2="290" y2="116"/>
    </g>
    <g transform="rotate(300 256 256)">
      <line x1="256" y1="256" x2="256" y2="96"/>
      <line x1="256" y1="150" x2="222" y2="116"/>
      <line x1="256" y1="150" x2="290" y2="116"/>
    </g>
  </g>
  <circle cx="256" cy="256" r="14" fill="#fff"/>
</svg>
